HIERARCHY
ROOT Hips
{
	OFFSET 0.00000 0.00000 0.00000
	CHANNELS 6 Xposition Yposition Zposition Zrotation Yrotation Xrotation 
	JOINT LHipJoint
	{
		OFFSET 0 0 0
		CHANNELS 3 Zrotation Yrotation Xrotation
		JOINT LeftHip
		{
			OFFSET 1.41261 -1.82971 0.84908
			CHANNELS 3 Zrotation Yrotation Xrotation
			JOINT LeftKnee
			{
				OFFSET 2.52554 -6.93888 0.00000
				CHANNELS 3 Zrotation Yrotation Xrotation
				JOINT LeftAnkle
				{
					OFFSET 2.56654 -7.05152 0.00000
					CHANNELS 3 Zrotation Yrotation Xrotation
					JOINT LeftToe
					{
						OFFSET 0.21698 -0.59616 1.85369
						CHANNELS 3 Zrotation Yrotation Xrotation
						End Site
						{
							OFFSET 0.00000 -0.00000 0.97832
						}
					}
				}
			}
		}
	}
	JOINT RHipJoint
	{
		OFFSET 0 0 0
		CHANNELS 3 Zrotation Yrotation Xrotation
		JOINT RightHip
		{
			OFFSET -1.12808 -1.82971 0.84907
			CHANNELS 3 Zrotation Yrotation Xrotation
			JOINT RightKnee
			{
				OFFSET -2.53425 -6.96280 0.00000
				CHANNELS 3 Zrotation Yrotation Xrotation
				JOINT RightAnkle
				{
					OFFSET -2.58413 -7.09983 0.00000
					CHANNELS 3 Zrotation Yrotation Xrotation
					JOINT RightToe
					{
						OFFSET -0.26437 -0.72636 1.92241
						CHANNELS 3 Zrotation Yrotation Xrotation
						End Site
						{
							OFFSET -0.00000 -0.00000 1.02667
						}
					}
				}
			}
		}
	}
	JOINT lowerback
	{
		OFFSET 0 0 0
		CHANNELS 3 Zrotation Yrotation Xrotation
		JOINT Chest
		{
			OFFSET -0.02096 2.02288 -0.14752
			CHANNELS 3 Zrotation Yrotation Xrotation
			JOINT Chest2
			{
				OFFSET 0.03477 2.03136 -0.02358
				CHANNELS 3 Zrotation Yrotation Xrotation
				JOINT lowerneck
				{
					OFFSET 0 0 0
					CHANNELS 3 Zrotation Yrotation Xrotation
					JOINT Neck
					{
						OFFSET 0.00174 1.74359 0.19336
						CHANNELS 3 Zrotation Yrotation Xrotation
						JOINT Head
						{
							OFFSET -0.03054 1.76140 -0.17751
							CHANNELS 3 Zrotation Yrotation Xrotation
							End Site
							{
								OFFSET -0.00863 1.77239 -0.08120
							}
						}
					}
				}
				JOINT LeftCollar
				{
					OFFSET 0 0 0
					CHANNELS 3 Zrotation Yrotation Xrotation
					JOINT LeftShoulder
					{
						OFFSET 3.68685 1.32687 -0.67367
CHANNELS 3 Zrotation Xrotation Yrotation
						JOINT LeftElbow
						{
OFFSET 0 -4.764680 -0.000000
CHANNELS 3 Zrotation Xrotation Yrotation
							JOINT LeftWrist
							{
OFFSET 0 -3.527120 -0.000000
CHANNELS 3 Zrotation Xrotation Yrotation
								JOINT lhand
								{
									OFFSET 0 0 0
CHANNELS 3 Zrotation Xrotation Yrotation
									JOINT LFingers
									{
OFFSET 0 -0.859560 -0.000000
CHANNELS 3 Zrotation Xrotation Yrotation
										End Site
										{
OFFSET 0 -0.693000 -0.000000
										}
									}
								}
								JOINT LThumb
								{
OFFSET 0 0.000000 0.000000
CHANNELS 3 Zrotation Xrotation Yrotation
									End Site
									{
OFFSET 0 -0.703580 0.703580
									}
								}
							}
						}
					}
				}
				JOINT RightCollar
				{
					OFFSET 0 0 0
					CHANNELS 3 Zrotation Yrotation Xrotation
					JOINT RightShoulder
					{
						OFFSET -3.31304 1.28268 -0.97357
CHANNELS 3 Zrotation Xrotation Yrotation
						JOINT RightElbow
						{
OFFSET 0 -4.905770 -0.000000
CHANNELS 3 Zrotation Xrotation Yrotation
							JOINT RightWrist
							{
OFFSET 0 -3.426920 0.000000
CHANNELS 3 Zrotation Xrotation Yrotation
								JOINT rhand
								{
									OFFSET 0 0 0
CHANNELS 3 Zrotation Xrotation Yrotation
									JOINT RFingers
									{
OFFSET 0 -0.740960 -0.000000
CHANNELS 3 Zrotation Xrotation Yrotation
										End Site
										{
OFFSET 0 -0.597380 -0.000000
										}
									}
								}
								JOINT RThumb
								{
OFFSET 0 0.000000 0.000000
CHANNELS 3 Zrotation Xrotation Yrotation
									End Site
									{
OFFSET 0 -0.606500 0.606500
									}
								}
							}
						}
					}
				}
			}
		}
	}
}
MOTION
Frames: 6
Frame Time: 0.008333333333333333
1.078910 16.147026 8.701070 -8.566200 -6.430976 0.015226 0.000000 0.000000 0.000000 16.736205 -13.507956 -32.238095 2.646945 10.092158 29.283011 0.233996 -5.997198 13.293491 6.754007 -15.111095 -47.919410 0.000000 0.000000 0.000000 8.048305 -0.797114 19.800162 -6.354698 -14.738480 46.342527 0.855022 -16.279899 -3.527516 -1.535516 -7.820863 22.172363 2.702681 4.140846 14.535032 2.874669 6.032764 2.952132 0.388327 2.936398 -5.025295 0.242765 1.274477 -14.154549 -2.232087 2.023296 12.693495 -0.561047 0.808772 6.203375 0.000000 0.000000 0.000000 -5.411003 28.759131 -16.217250 56.569167 -55.323569 31.502713 20.367048 -19.195524 32.216321 0.000000 0.000000 0.000000 -7.125000 0.000000 0.000000 -6.445700 -3.736624 -6.894352 0.000000 0.000000 0.000000 -10.811035 0.641347 33.061537 -44.069368 -50.304245 -21.520242 -16.028403 9.745000 32.680286 0.000000 0.000000 0.000000 7.125000 0.000000 0.000000 19.718663 62.634815 -8.623330
1.167896 16.040754 9.074686 -8.242992 -6.240933 -0.246866 0.000000 0.000000 0.000000 15.952339 -13.024932 -32.442090 2.995899 10.657358 31.165692 0.100420 -6.463094 10.551743 7.098908 -15.412389 -49.243479 0.000000 0.000000 0.000000 8.283439 -0.752795 19.443417 -7.084158 -15.376258 49.147427 0.778747 -15.511354 -3.640894 -1.660714 -8.110556 23.055987 2.299147 4.113978 14.358882 2.566379 5.913903 2.912873 0.322472 2.883896 -4.978683 0.056272 1.250181 -14.047715 -1.700115 1.947050 12.764251 -0.368768 0.806449 6.199050 0.000000 0.000000 0.000000 -4.657913 28.567928 -16.347139 56.330734 -55.250078 31.306603 20.154379 -18.937601 32.089668 0.000000 0.000000 0.000000 -7.125000 0.000000 0.000000 -6.547799 -3.565065 -6.986771 0.000000 0.000000 0.000000 -10.371416 1.496556 32.838296 -44.032556 -50.285595 -21.491915 -16.450556 9.850942 32.741229 0.000000 0.000000 0.000000 7.125000 0.000000 0.000000 19.306283 62.800212 -8.511195
1.256960 15.924623 9.442377 -7.900921 -6.020589 -0.531909 0.000000 0.000000 0.000000 14.949764 -12.287620 -32.803750 3.501432 11.431096 33.789320 -0.016001 -5.727857 5.714105 7.329046 -15.600215 -50.103531 0.000000 0.000000 0.000000 8.534565 -0.758392 18.975661 -7.886796 -16.005496 52.103911 0.685678 -14.531890 -3.805224 -1.845789 -8.526060 24.330578 1.884512 4.092363 14.277103 2.270431 5.806505 2.871622 0.266554 2.835794 -4.987706 -0.118913 1.189969 -13.962124 -1.257159 1.833283 12.838551 -0.210180 0.778948 6.200883 0.000000 0.000000 0.000000 -3.899855 28.396313 -16.562031 56.204423 -55.210564 31.202872 20.013932 -18.793536 31.956313 0.000000 0.000000 0.000000 -7.125000 0.000000 0.000000 -6.608831 -3.401942 -7.035018 0.000000 0.000000 0.000000 -9.968360 2.414360 32.540659 -44.043460 -50.291192 -21.500358 -16.905960 9.904303 32.750782 0.000000 0.000000 0.000000 7.125000 0.000000 0.000000 18.809338 62.927054 -8.339725
1.343949 15.803380 9.805258 -7.498727 -5.733501 -0.873132 0.000000 0.000000 0.000000 13.907083 -11.686324 -33.111740 4.055542 12.205910 36.505479 -0.060433 -5.448336 1.181510 7.394552 -15.654006 -50.348913 0.000000 0.000000 0.000000 8.758017 -0.855897 18.470082 -8.735106 -16.610606 55.134383 0.585724 -13.408582 -4.086855 -1.939465 -8.738314 24.980519 1.397379 4.061939 14.290610 1.979294 5.677960 2.845538 0.253704 2.777731 -5.039400 -0.299720 1.113439 -13.880628 -0.847970 1.703369 12.899213 -0.062873 0.740600 6.200000 0.000000 0.000000 0.000000 -3.162718 28.086759 -16.775226 55.991164 -55.142941 31.027926 19.845735 -18.663543 31.822184 0.000000 0.000000 0.000000 -7.125000 0.000000 0.000000 -6.685786 -3.232763 -7.099356 0.000000 0.000000 0.000000 -9.589771 3.346238 32.221102 -44.041932 -50.290431 -21.499199 -17.250345 9.888223 32.800178 0.000000 0.000000 0.000000 7.125000 0.000000 0.000000 18.470027 63.062856 -8.243563
1.427706 15.674174 10.160646 -7.002891 -5.342458 -1.301856 0.000000 0.000000 0.000000 12.801936 -11.296873 -33.336137 4.685311 12.982398 39.365759 0.007258 -5.878604 -2.875973 7.203638 -15.499037 -49.636930 0.000000 0.000000 0.000000 8.938364 -1.096554 17.905591 -9.654551 -17.178137 58.280093 0.475045 -12.061234 -4.551184 -1.890784 -8.634004 24.657553 0.797330 4.017793 14.452527 1.695649 5.516477 2.843077 0.307934 2.704154 -5.157557 -0.489282 1.011493 -13.805507 -0.491376 1.548303 12.938630 0.066864 0.685357 6.194886 0.000000 0.000000 0.000000 -2.458166 27.562361 -16.985776 55.642483 -55.031539 30.742062 19.634316 -18.555469 31.686851 0.000000 0.000000 0.000000 -7.125000 0.000000 0.000000 -6.787539 -3.054152 -7.188758 0.000000 0.000000 0.000000 -9.249292 4.300034 31.867403 -44.021041 -50.279768 -21.483085 -17.421816 9.763987 32.911628 0.000000 0.000000 0.000000 7.125000 0.000000 0.000000 18.376235 63.212615 -8.264695
1.507178 15.540346 10.507187 -6.521294 -4.844779 -1.771864 0.000000 0.000000 0.000000 11.723974 -10.991482 -33.570349 5.344370 13.739519 42.247818 0.124712 -6.650315 -6.842761 7.065513 -15.386734 -49.121496 0.000000 0.000000 0.000000 9.147479 -1.499247 17.297957 -10.582304 -17.707178 61.396083 0.371785 -10.741210 -4.950823 -1.787502 -8.397807 23.935455 0.193027 3.940963 14.756991 1.424461 5.308763 2.836869 0.378290 2.607770 -5.356671 -0.652382 0.917902 -13.722184 -0.162136 1.403112 12.966007 0.184436 0.633984 6.185395 0.000000 0.000000 0.000000 -1.777051 26.993914 -17.172720 55.269227 -54.910829 30.436401 19.496866 -18.529090 31.621755 0.000000 0.000000 0.000000 -7.125000 0.000000 0.000000 -6.856670 -2.961121 -7.252726 0.000000 0.000000 0.000000 -8.878340 5.244708 31.482003 -43.930481 -50.233304 -21.413521 -17.494389 9.616037 33.043768 0.000000 0.000000 0.000000 7.125000 0.000000 0.000000 18.412594 63.355724 -8.344299
